<?xml version="1.0" encoding="UTF-8"?>
<!-- Generated by jsxcad -->
<!DOCTYPE svg PUBLIC "-//W3C//DTD SVG 1.1 Tiny//EN" "http://www.w3.org/Graphics/SVG/1.1/DTD/svg11-tiny.dtd">
<svg baseProfile="tiny" height="19.921147013144793mm" width="19.960534568565446mm" viewBox="0 0 19.960534568565446 19.921147013144793" version="1.1" stroke="black" stroke-width=".1" fill="none" xmlns="http://www.w3.org/2000/svg">
<path fill="#000000" stroke="#000000" d="M5.1145 17.53186 L3.17852 15.85432 L1.79358 13.69931 L1.07187 11.24141 L1.07187 8.67974 L1.79358 6.22184 L3.17852 4.06683 L5.1145 2.38929 L7.44467 1.32514 L9.98027 0.96057 L12.51586 1.32514 L14.84603 2.38929 L16.78201 4.06683 L18.16696 6.22184 L18.88866 8.67974 L18.88866 11.24141 L18.16696 13.69931 L16.78201 15.85432 L14.84603 17.53186 L12.51586 18.59601 L9.98027 18.96057 L7.44467 18.59601 z"/>
<path fill="#000000" stroke="#000000" d="M9.980270438954987 18.960573052999 L9.980270438954987 18.960573052999 L12.515860043899634 18.59601030532867 L12.515860043899634 18.59601030532867 z"/>
<path fill="#000000" stroke="#000000" d="M12.515860152742881 18.596010334460257 L12.515860152742881 18.596010334460257 L14.846029025726065 17.53185786663766 L14.846029025726065 17.53185786663766 z"/>
<path fill="#000000" stroke="#000000" d="M16.78201153646501 15.854321773175148 L16.78201153646501 15.854321773175148 L14.846029665358383 17.531859613802986 L14.846029665358383 17.531859613802986 z"/>
<path fill="#000000" stroke="#000000" d="M7.444670048629865 18.596009661771856 L7.444670048629865 18.596009661771856 L9.980269451039382 18.960573818104972 L9.980269451039382 18.960573818104972 z"/>
<path fill="#000000" stroke="#000000" d="M18.8886594433117 11.241409836541566 L18.8886594433117 11.241409836541566 L18.166955248021775 13.6993086046933 L18.166955248021775 13.6993086046933 z"/>
<path fill="#000000" stroke="#000000" d="M18.16695600704913 13.699307433886293 L18.16695600704913 13.699307433886293 L16.782012495023142 15.85432160345401 L16.782012495023142 15.85432160345401 z"/>
<path fill="#000000" stroke="#000000" d="M18.166956055429694 6.221841158230344 L18.166956055429694 6.221841158230344 L18.88866025071962 8.679739926382076 L18.88866025071962 8.679739926382076 z"/>
<path fill="#000000" stroke="#000000" d="M18.888660261211115 8.67974 L18.888660261211115 8.67974 L18.888660261211115 11.24141 L18.888660261211115 11.24141 z"/>
<path fill="#000000" stroke="#000000" d="M16.78201385349267 4.066827523510632 L16.78201385349267 4.066827523510632 L18.166957365518662 6.22184169307835 L18.166957365518662 6.22184169307835 z"/>
<path fill="#000000" stroke="#000000" d="M12.515861281400156 1.3251371941250425 L12.515861281400156 1.3251371941250425 L14.84603015438334 2.3892896619476365 L14.84603015438334 2.3892896619476365 z"/>
<path fill="#000000" stroke="#000000" d="M14.846031143585048 2.3892886802324997 L14.846031143585048 2.3892886802324997 L16.782013014691675 4.0668265208603405 L16.782013014691675 4.0668265208603405 z"/>
<path fill="#000000" stroke="#000000" d="M7.444669627882687 1.3251374118672452 L7.444669627882687 1.3251374118672452 L9.980270438954989 0.960573052999001 L9.980270438954989 0.960573052999001 z"/>
<path fill="#000000" stroke="#000000" d="M9.980269451039382 0.9605738181049714 L9.980269451039382 0.9605738181049714 L12.515860464646812 1.3251367683104351 L12.515860464646812 1.3251367683104351 z"/>
<path fill="#000000" stroke="#000000" d="M1.7935789442462735 6.221839690002736 L1.7935789442462735 6.221839690002736 L1.0718739552240129 8.679741161358555 L1.0718739552240129 8.679741161358555 z"/>
<path fill="#000000" stroke="#000000" d="M3.17851894450372 4.066828781892358 L3.17851894450372 4.066828781892358 L5.114500815610348 2.3892909412645187 L5.114500815610348 2.3892909412645187 z"/>
<path fill="#000000" stroke="#000000" d="M5.11450063401232 2.389291388293331 L5.11450063401232 2.389291388293331 L7.444669506995505 1.3251389204707391 L7.444669506995505 1.3251389204707391 z"/>
<path fill="#000000" stroke="#000000" d="M3.1785193797153855 4.066829601367283 L3.1785193797153855 4.066829601367283 L1.7935787906143315 6.221839222775024 L1.7935787906143315 6.221839222775024 z"/>
<path fill="#000000" stroke="#000000" d="M1.793579751654193 13.699310072920907 L1.793579751654193 13.699310072920907 L1.0718747626319325 11.241408601565087 L1.0718747626319325 11.241408601565087 z"/>
<path fill="#000000" stroke="#000000" d="M1.0718743073543278 11.24141 L1.0718743073543278 11.24141 L1.0718743073543295 8.67974 L1.0718743073543295 8.67974 z"/>
<path fill="#000000" stroke="#000000" d="M3.1785207381849165 15.854319525597358 L3.1785207381849165 15.854319525597358 L1.793580149083862 13.699309904189619 L1.793580149083862 13.699309904189619 z"/>
<path fill="#000000" stroke="#000000" d="M5.1145017626695966 17.531856140291968 L5.1145017626695966 17.531856140291968 L7.444670635652781 18.59600860811456 L7.444670635652781 18.59600860811456 z"/>
<path fill="#000000" stroke="#000000" d="M5.114502293837012 17.53185735277097 L5.114502293837012 17.53185735277097 L3.1785204227303843 15.854319512143128 L3.1785204227303843 15.854319512143128 z"/>
<path fill="#000000" stroke="#000000" d="M3.17852 15.85432 L5.1145 17.53186 L7.44467 18.59601 L9.98027 18.96057 L12.51586 18.59601 L14.84603 17.53186 L16.78201 15.85432 L18.16696 13.69931 L18.88866 11.24141 L18.88866 8.67974 L18.16696 6.22184 L16.78201 4.06683 L14.84603 2.38929 L12.51586 1.32514 L9.98027 0.96057 L7.44467 1.32514 L5.1145 2.38929 L3.17852 4.06683 L1.79358 6.22184 L1.07187 8.67974 L1.07187 11.24141 L1.79358 13.69931 z"/>
<path fill="#000000" stroke="#000000" d="M9.98027 17.46057 L7.41512 17.00827 L5.15936 15.70591 L3.48508 13.71057 L2.59421 11.26293 L2.59421 8.65821 L3.48508 6.21057 L5.15936 4.21524 L7.41512 2.91288 L9.98027 2.46057 L12.54542 2.91288 L14.80117 4.21524 L16.47546 6.21057 L17.36633 8.65821 L17.36633 11.26293 L16.47546 13.71057 L14.80117 15.70591 L12.54542 17.00827 z"/>
<path fill="#000000" stroke="#000000" d="M9.9802705177703 17.460572936421293 L9.9802705177703 17.460572936421293 L12.545419636287887 17.008267937286107 L12.545419636287887 17.008267937286107 z"/>
<path fill="#000000" stroke="#000000" d="M17.366325431874284 11.26293 L17.366325431874284 11.26293 L17.366325431874284 8.65821 L17.366325431874284 8.65821 z"/>
<path fill="#000000" stroke="#000000" d="M16.475459195526128 13.710569707195456 L16.475459195526128 13.710569707195456 L17.366327521492003 11.262929097896864 L17.366327521492003 11.262929097896864 z"/>
<path fill="#000000" stroke="#000000" d="M14.801170995814859 15.705910835587881 L14.801170995814859 15.705910835587881 L16.475460443069565 13.710570371779509 L16.475460443069565 13.710570371779509 z"/>
<path fill="#000000" stroke="#000000" d="M16.475456941544838 6.210571113186641 L16.475456941544838 6.210571113186641 L17.366325267510717 8.658211722485232 L17.366325267510717 8.658211722485232 z"/>
<path fill="#000000" stroke="#000000" d="M16.475456989769885 6.21057252588298 L16.475456989769885 6.21057252588298 L14.801172466553941 4.215237930315497 L14.801172466553941 4.215237930315497 z"/>
<path fill="#000000" stroke="#000000" d="M12.545420087477297 2.9128798484848755 L12.545420087477297 2.9128798484848755 L14.801171009913649 4.215238250778249 L14.801171009913649 4.215238250778249 z"/>
<path fill="#000000" stroke="#000000" d="M14.801169716567406 15.705909509080344 L14.801169716567406 15.705909509080344 L12.545418794131054 17.008267911373718 L12.545418794131054 17.008267911373718 z"/>
<path fill="#000000" stroke="#000000" d="M9.980269318451906 2.460573865251307 L9.980269318451906 2.460573865251307 L12.54542014707021 2.91287916592339 L12.54542014707021 2.91287916592339 z"/>
<path fill="#000000" stroke="#000000" d="M7.4151196891519975 2.912878237093377 L7.4151196891519975 2.912878237093377 L9.9802705177703 2.4605729364212947 L9.9802705177703 2.4605729364212947 z"/>
<path fill="#000000" stroke="#000000" d="M7.415118554664063 2.912877496604724 L7.415118554664063 2.912877496604724 L5.159360132227713 4.215240229025117 L5.159360132227713 4.215240229025117 z"/>
<path fill="#000000" stroke="#000000" d="M3.4850763696337994 13.71057304623894 L3.4850763696337994 13.71057304623894 L5.159361685129395 15.705908586008546 L5.159361685129395 15.705908586008546 z"/>
<path fill="#000000" stroke="#000000" d="M2.5942099364118762 8.658209976855815 L2.5942099364118762 8.658209976855815 L3.4850782623777548 6.210569367557223 L3.4850782623777548 6.210569367557223 z"/>
<path fill="#000000" stroke="#000000" d="M3.485079822933482 6.21056985142355 L3.485079822933482 6.21056985142355 L5.159360214390313 4.215240179894832 L5.159360214390313 4.215240179894832 z"/>
<path fill="#000000" stroke="#000000" d="M2.594207682430587 11.262930843526282 L2.594207682430587 11.262930843526282 L3.4850760083964665 13.710571452824873 L3.4850760083964665 13.710571452824873 z"/>
<path fill="#000000" stroke="#000000" d="M2.5942091366911626 11.26293 L2.5942091366911626 11.26293 L2.5942091366911626 8.65821 L2.5942091366911626 8.65821 z"/>
<path fill="#000000" stroke="#000000" d="M7.415119848010305 17.00827026325387 L7.415119848010305 17.00827026325387 L5.159361425573956 15.705907530833477 L5.159361425573956 15.705907530833477 z"/>
<path fill="#000000" stroke="#000000" d="M7.415120199934321 17.00826886611612 L7.415120199934321 17.00826886611612 L9.980269318451908 17.460573865251305 L9.980269318451908 17.460573865251305 z"/>
<path fill="#000000" stroke="#000000" d="M7.41512 17.00827 L9.98027 17.46057 L12.54542 17.00827 L14.80117 15.70591 L16.47546 13.71057 L17.36633 11.26293 L17.36633 8.65821 L16.47546 6.21057 L14.80117 4.21524 L12.54542 2.91288 L9.98027 2.46057 L7.41512 2.91288 L5.15936 4.21524 L3.48508 6.21057 L2.59421 8.65821 L2.59421 11.26293 L3.48508 13.71057 L5.15936 15.70591 z"/>
<path fill="#000000" stroke="#000000" d="M19.49083 13.05074 L18.42355 15.31884 L16.82574 17.25026 L14.7978 18.72364 L12.46717 19.64641 L9.98027 19.96057 L7.49337 19.64641 L5.16273 18.72364 L3.1348 17.25026 L1.53699 15.31884 L0.4697 13.05074 L0 10.58848 L0.15739 8.08676 L0.932 5.70278 L2.27513 3.58633 L4.10241 1.8704 L6.29902 0.66281 L8.72693 0.03943 L11.2336 0.03943 L13.66151 0.66281 L15.85812 1.8704 L17.6854 3.58633 L19.02854 5.70278 L19.80314 8.08676 L19.96053 10.58848 M18.35739 13.05074 L18.6543 12.03955 L18.88866 11.24141 L18.88866 9.89405 L18.88866 8.67974 L18.22745 6.42787 L18.16696 6.22184 L16.78201 4.06683 L15.00086 2.52345 L14.84603 2.38929 L12.51586 1.32514 L11.66545 1.20287 L9.98027 0.96057 L9.5412 1.0237 L7.95782 1.25136 L7.44467 1.32514 L5.58845 2.17284 L5.1145 2.38929 L3.17852 4.06683 L1.79358 6.22184 L1.07187 8.67974 L1.07187 11.24141 L1.16764 11.56755 L1.24461 11.82969 L1.60314 13.05074 L1.79358 13.69931 L2.75739 15.19902 L3.17852 15.85432 L5.1145 17.53186 L5.36193 17.64485 L7.44467 18.59601 L8.99783 18.81932 L9.98027 18.96057 L11.69623 18.71386 L12.51586 18.59601 L14.84603 17.53186 L16.78201 15.85432 L17.78927 14.287 L18.08821 13.82184 L18.16696 13.69931 z"/>
<path fill="#000000" stroke="#000000" d="M16.78201153646501 15.854321773175148 L16.78201153646501 15.854321773175148 L14.846029665358383 17.531859613802986 L14.846029665358383 17.531859613802986 z"/>
<path fill="#000000" stroke="#000000" d="M18.16695524802177 13.699308604693298 L18.16695524802177 13.699308604693298 L18.357392000381843 13.050740587365103 L18.65430400126685 12.039551174877953 L18.8886594433117 11.241409836541566 L18.8886594433117 11.241409836541566 L18.65430400126685 12.039551174877953 L18.357392000381843 13.050740587365103 z"/>
<path fill="#000000" stroke="#000000" d="M14.797801536699325 18.723642115085166 L14.797801536699325 18.723642115085166 L16.825739323475165 17.250259068843448 L16.825739323475165 17.250259068843448 z"/>
<path fill="#000000" stroke="#000000" d="M12.467167808040541 19.64640446374237 L12.467167808040541 19.64640446374237 L14.797800650573032 18.72364164315991 L14.797800650573032 18.72364164315991 z"/>
<path fill="#000000" stroke="#000000" d="M18.88866025071961 8.67973992638208 L18.88866025071961 8.67973992638208 L18.227451456139402 6.427869572438894 L18.166956055429694 6.221841158230344 L18.166956055429694 6.221841158230344 L18.227451456139402 6.427869572438894 z"/>
<path fill="#000000" stroke="#000000" d="M14.846031143585048 2.3892886802325006 L14.846031143585048 2.3892886802325006 L15.000860669111347 2.52344922780434 L16.782013014691675 4.0668265208603405 L16.782013014691675 4.0668265208603405 L15.000860669111347 2.52344922780434 z"/>
<path fill="#000000" stroke="#000000" d="M17.68539806407897 3.5863320615465084 L17.68539806407897 3.5863320615465084 L15.858118131760246 1.8704019894732684 L15.858118131760246 1.8704019894732684 z"/>
<path fill="#000000" stroke="#000000" d="M13.661511223322092 0.6628077747853726 L13.661511223322092 0.6628077747853726 L15.858118451159989 1.8704028173295193 L15.858118451159989 1.8704028173295193 z"/>
<path fill="#000000" stroke="#000000" d="M9.98026945103938 0.9605738181049754 L9.98026945103938 0.9605738181049754 L11.665450534938557 1.202866279420598 L12.515860464646812 1.3251367683104351 L12.515860464646812 1.3251367683104351 L11.665450534938557 1.202866279420598 z"/>
<path fill="#000000" stroke="#000000" d="M9.980270438954989 0.9605730529990024 L9.980270438954989 0.9605730529990024 L9.54120026083583 1.0237018141530436 L7.957819651609707 1.2513575768922949 L7.444669627882687 1.3251374118672452 L7.444669627882687 1.3251374118672452 L7.957819651609707 1.2513575768922949 L9.54120026083583 1.0237018141530436 z"/>
<path fill="#000000" stroke="#000000" d="M5.1145006340123205 2.389291388293332 L5.1145006340123205 2.389291388293332 L5.588452254123494 2.1728449358419604 L7.444669506995505 1.3251389204707391 L7.444669506995505 1.3251389204707391 L5.588452254123494 2.1728449358419604 z"/>
<path fill="#000000" stroke="#000000" d="M3.17851894450372 4.066828781892358 L3.17851894450372 4.066828781892358 L5.114500815610348 2.3892909412645187 L5.114500815610348 2.3892909412645187 z"/>
<path fill="#000000" stroke="#000000" d="M2.275135094965362 3.586333233363339 L2.275135094965362 3.586333233363339 L0.9319979573094086 5.702778703669131 L0.9319979573094086 5.702778703669131 z"/>
<path fill="#000000" stroke="#000000" d="M1.0718739552240129 8.679741161358555 L1.0718739552240129 8.679741161358555 L1.7935789442462735 6.221839690002736 L1.7935789442462735 6.221839690002736 z"/>
<path fill="#000000" stroke="#000000" d="M1.0718743073543278 11.24141 L1.0718743073543278 11.24141 L1.0718743073543295 8.67974 L1.0718743073543295 8.67974 z"/>
<path fill="#000000" stroke="#000000" d="M1.793579751654193 13.699310072920907 L1.793579751654193 13.699310072920907 L1.60314220556179 13.050739352388625 L1.2446097850476951 11.82969006311569 L1.1676386353147987 11.567550400707729 L1.0718747626319358 11.241408601565087 L1.0718747626319358 11.241408601565087 L1.1676386353147987 11.567550400707729 L1.2446097850476951 11.82969006311569 L1.60314220556179 13.050739352388625 z"/>
<path fill="#000000" stroke="#000000" d="M0.15739478076661373 8.08676030078034 L0.15739478076661373 8.08676030078034 L-8.134968803713802e-8 10.588479994881911 L-8.134968803713802e-8 10.588479994881911 z"/>
<path fill="#000000" stroke="#000000" d="M7.493370582134574 19.646405391930344 L7.493370582134574 19.646405391930344 L9.980269521315828 19.960573789175395 L9.980269521315828 19.960573789175395 z"/>
<path fill="#000000" stroke="#000000" d="M7.444670635652782 18.596008608114555 L7.444670635652782 18.596008608114555 L5.361928930572781 17.644852341718966 L5.1145017626695966 17.531856140291968 L5.1145017626695966 17.531856140291968 L5.361928930572781 17.644852341718966 z"/>
<path fill="#000000" stroke="#000000" d="M9.980269451039382 18.96057381810497 L9.980269451039382 18.96057381810497 L8.997829950713541 18.819320342794846 L7.444670048629865 18.596009661771856 L7.444670048629865 18.596009661771856 L8.997829950713541 18.819320342794846 z"/>
<path fill="#000000" stroke="#000000" d="M1.536988114708509 15.31884155964876 L1.536988114708509 15.31884155964876 L3.1347978664806053 17.25026176500074 L3.1347978664806053 17.25026176500074 z"/>
<path fill="#000000" stroke="#000000" d="M9.980270438954987 18.960573052998996 L9.980270438954987 18.960573052998996 L11.696229340005928 18.713855409640406 L12.515860043899634 18.59601030532867 L12.515860043899634 18.59601030532867 L11.696229340005928 18.713855409640406 z"/>
<path fill="#000000" stroke="#000000" d="M18.423548660699538 15.318838892034302 L18.423548660699538 15.318838892034302 L16.825738908927445 17.250259097386284 L16.825738908927445 17.250259097386284 z"/>
<path fill="#000000" stroke="#000000" d="M19.96053463190288 10.588479708585371 L19.96053463190288 10.588479708585371 L19.80313976978658 8.086760014483799 L19.80313976978658 8.086760014483799 z"/>
<path fill="#000000" stroke="#000000" d="M12.515860152742881 18.596010334460257 L12.515860152742881 18.596010334460257 L14.846029025726065 17.53185786663766 L14.846029025726065 17.53185786663766 z"/>
<path fill="#000000" stroke="#000000" d="M9.98027039336492 19.960573113803974 L9.98027039336492 19.960573113803974 L12.46716933254617 19.64640471655892 L12.46716933254617 19.64640471655892 z"/>
<path fill="#000000" stroke="#000000" d="M5.1627299685392485 18.723640079460782 L5.1627299685392485 18.723640079460782 L7.493371455914876 19.646406322778773 L7.493371455914876 19.646406322778773 z"/>
<path fill="#000000" stroke="#000000" d="M5.1627300417012165 18.723639942603196 L5.1627300417012165 18.723639942603196 L3.134798800010346 17.250261651644063 L3.134798800010346 17.250261651644063 z"/>
<path fill="#000000" stroke="#000000" d="M3.1785204227303843 15.854319512143128 L3.1785204227303843 15.854319512143128 L5.114502293837012 17.53185735277097 L5.114502293837012 17.53185735277097 z"/>
<path fill="#000000" stroke="#000000" d="M3.1785207381849165 15.854319525597358 L3.1785207381849165 15.854319525597358 L2.7573866771197517 15.199022135485468 L1.793580149083864 13.699309904189617 L1.793580149083864 13.699309904189617 L2.7573866771197517 15.199022135485468 z"/>
<path fill="#000000" stroke="#000000" d="M0.46970040749994096 13.050739808245082 L0.46970040749994096 13.050739808245082 L1.5369878254603861 15.318841023260669 L1.5369878254603861 15.318841023260669 z"/>
<path fill="#000000" stroke="#000000" d="M0.4697014117734258 13.050739730689815 L0.4697014117734258 13.050739730689815 L2.38937591672302e-7 10.588479954420217 L2.38937591672302e-7 10.588479954420217 z"/>
<path fill="#000000" stroke="#000000" d="M0.1573944268448479 8.086761438369082 L0.1573944268448479 8.086761438369082 L0.9319972427185627 5.702779104104952 L0.9319972427185627 5.702779104104952 z"/>
<path fill="#000000" stroke="#000000" d="M1.7935787906143315 6.221839222775024 L1.7935787906143315 6.221839222775024 L3.1785193797153855 4.066829601367283 L3.1785193797153855 4.066829601367283 z"/>
<path fill="#000000" stroke="#000000" d="M4.102414009091176 1.8704042692484817 L4.102414009091176 1.8704042692484817 L2.2751340767724537 3.5863343413217206 L2.2751340767724537 3.5863343413217206 z"/>
<path fill="#000000" stroke="#000000" d="M6.299019836980738 0.6628097034690658 L6.299019836980738 0.6628097034690658 L4.102412609142843 1.870404746013213 L4.102412609142843 1.870404746013213 z"/>
<path fill="#000000" stroke="#000000" d="M8.72692946140477 0.03942790231008245 L8.72692946140477 0.03942790231008245 L6.299019782951359 0.6628091546513588 L6.299019782951359 0.6628091546513588 z"/>
<path fill="#000000" stroke="#000000" d="M11.233599999999997 0.03942649342761761 L11.233599999999997 0.03942649342761761 L8.726929999999998 0.03942649342761939 L8.726929999999998 0.03942649342761939 z"/>
<path fill="#000000" stroke="#000000" d="M11.23360082114574 0.03942680184848716 L11.23360082114574 0.03942680184848716 L13.661510499599153 0.6628080541897632 L13.661510499599153 0.6628080541897632 z"/>
<path fill="#000000" stroke="#000000" d="M14.84603015438334 2.3892896619476365 L14.84603015438334 2.3892896619476365 L12.515861281400156 1.3251371941250425 L12.515861281400156 1.3251371941250425 z"/>
<path fill="#000000" stroke="#000000" d="M16.78201385349267 4.066827523510632 L16.78201385349267 4.066827523510632 L18.166957365518662 6.22184169307835 L18.166957365518662 6.22184169307835 z"/>
<path fill="#000000" stroke="#000000" d="M19.028538170677134 5.70278116092359 L19.028538170677134 5.70278116092359 L17.685398161917636 3.5863311664825375 L17.685398161917636 3.5863311664825375 z"/>
<path fill="#000000" stroke="#000000" d="M19.02853784450273 5.702780700363517 L19.02853784450273 5.702780700363517 L19.803139705461415 8.086760095701385 L19.803139705461415 8.086760095701385 z"/>
<path fill="#000000" stroke="#000000" d="M18.88866026121111 11.24141 L18.88866026121111 11.24141 L18.888660261211115 9.89405 L18.888660261211115 8.67974 L18.888660261211115 8.67974 L18.888660261211115 9.89405 z"/>
<path fill="#000000" stroke="#000000" d="M19.49083299638166 13.05074057159037 L19.49083299638166 13.05074057159037 L19.960534169217492 10.588480795320772 L19.960534169217492 10.588480795320772 z"/>
<path fill="#000000" stroke="#000000" d="M19.490833332839387 13.05074156831517 L19.490833332839387 13.05074156831517 L18.423547727758994 15.318838930764544 L18.423547727758994 15.318838930764544 z"/>
<path fill="#000000" stroke="#000000" d="M18.16695600704913 13.699307433886293 L18.16695600704913 13.699307433886293 L18.088209368990686 13.821839594474937 L17.78926924150452 14.286999512544556 L16.78201249502313 15.854321603454006 L16.78201249502313 15.854321603454006 L17.78926924150452 14.286999512544556 L18.088209368990686 13.821839594474937 z"/>
<path fill="#000000" stroke="#000000" d="M18.42355 15.31884 L19.49083 13.05074 L19.96053 10.58848 L19.80314 8.08676 L19.02854 5.70278 L17.6854 3.58633 L15.85812 1.8704 L13.66151 0.66281 L11.2336 0.03943 L8.72693 0.03943 L6.29902 0.66281 L4.10241 1.8704 L2.27513 3.58633 L0.932 5.70278 L0.15739 8.08676 L0 10.58848 L0.4697 13.05074 L1.53699 15.31884 L3.1348 17.25026 L5.16273 18.72364 L7.49337 19.64641 L9.98027 19.96057 L12.46717 19.64641 L14.7978 18.72364 L16.82574 17.25026 M17.78927 14.287 L16.78201 15.85432 L14.84603 17.53186 L12.51586 18.59601 L11.69623 18.71386 L9.98027 18.96057 L8.99783 18.81932 L7.44467 18.59601 L5.36193 17.64485 L5.1145 17.53186 L3.17852 15.85432 L2.75739 15.19902 L1.79358 13.69931 L1.60314 13.05074 L1.24461 11.82969 L1.16764 11.56755 L1.07187 11.24141 L1.07187 8.67974 L1.79358 6.22184 L3.17852 4.06683 L5.1145 2.38929 L5.58845 2.17284 L7.44467 1.32514 L7.95782 1.25136 L9.5412 1.0237 L9.98027 0.96057 L11.66545 1.20287 L12.51586 1.32514 L14.84603 2.38929 L15.00086 2.52345 L16.78201 4.06683 L18.16696 6.22184 L18.22745 6.42787 L18.88866 8.67974 L18.88866 9.89405 L18.88866 11.24141 L18.6543 12.03955 L18.35739 13.05074 L18.16696 13.69931 L18.08821 13.82184 z"/>
</svg>